# xmcd
#
# Track frame offsets:
#	182
#	12975
#	25795
#	39247
#	50840
#	65042
#	77517
#	91000
#	104307
#	120140
#	134910
#	151397
#	165060
#	176790
#	186407
#
# Disc length: 2637 seconds
#
# Revision: 0
# Processed by: cddbd v1.4PL0 Copyright (c) Steve Scherf et al.
# Submitted via: EasyCDDAExtractor 4.6.9.1
#
DISCID=b90a4b0f
DTITLE=Teodoro e Sampaio - Amando Escondido
DYEAR=1900
DGENRE=country
TTITLE0=Amando Escondido
TTITLE1=Tudo Que Ela Quer Eu Dou
TTITLE2=A Semente do Amor
TTITLE3=Te Amo de Paixão
TTITLE4=Mentira
TTITLE5=Folia do Amor
TTITLE6=Dodói de Amor
TTITLE7=O Machão Chorou
TTITLE8=Cidade Grande
TTITLE9=Não Tem Outro Jeito (A Dor da Paixão)
TTITLE10=Fogo na Casa
TTITLE11=O Grande Momento
TTITLE12=É Por Isso Que Eu Bebo
TTITLE13=A Volta da Cunhada
TTITLE14=Cotovelo Machucado
EXTD=
EXTT0=Guarânia\n
EXTT1=Jovem
EXTT2=Balanço
EXTT3=Rancheira
EXTT4=Balanço
EXTT5=Folia
EXTT6=Vanerão
EXTT7=Vanerão
EXTT8=Moda de Viola
EXTT9=Guarânia
EXTT10=Vanerão
EXTT11=Balada
EXTT12=Xotís
EXTT13=Olodum
EXTT14=
PLAYORDER=
